<?xml version="1.0" encoding="utf-8"?>
<!-- Generator: Adobe Illustrator 16.0.4, SVG Export Plug-In . SVG Version: 6.00 Build 0)  -->
<!DOCTYPE svg PUBLIC "-//W3C//DTD SVG 1.1//EN" "http://www.w3.org/Graphics/SVG/1.1/DTD/svg11.dtd">
<svg version="1.1"
	 id="svg3260" xmlns:inkscape="http://www.inkscape.org/namespaces/inkscape" xmlns:sodipodi="http://sodipodi.sourceforge.net/DTD/sodipodi-0.dtd" xmlns:svg="http://www.w3.org/2000/svg" xmlns:rdf="http://www.w3.org/1999/02/22-rdf-syntax-ns#" xmlns:cc="http://creativecommons.org/ns#" xmlns:dc="http://purl.org/dc/elements/1.1/" inkscape:version="0.48.0 r9654" sodipodi:docname="New document 3"
	 xmlns="http://www.w3.org/2000/svg" xmlns:xlink="http://www.w3.org/1999/xlink" x="0px" y="0px" width="744.094px"
	 height="1052.363px" viewBox="0 0 744.094 1052.363" enable-background="new 0 0 744.094 1052.363" xml:space="preserve">
<sodipodi:namedview  pagecolor="#ffffff" inkscape:cy="520" inkscape:cx="375" inkscape:zoom="0.35" borderopacity="1.0" bordercolor="#666666" id="base" inkscape:window-maximized="1" inkscape:window-y="-4" inkscape:window-x="-4" inkscape:window-height="744" inkscape:window-width="1280" inkscape:pageshadow="2" inkscape:current-layer="layer1" inkscape:pageopacity="0.0" inkscape:document-units="px" showgrid="false">
	</sodipodi:namedview>
<g id="layer1" inkscape:label="Layer 1" inkscape:groupmode="layer">
	<g id="g236" transform="matrix(21.428267,0,0,21.428267,-15.195252,-10.134022)">
		<g id="g238">
			<path id="path240" inkscape:connector-curvature="0" fill="#FFFFFF" d="M8.172,36.577c0,0.362-0.258,0.605-0.562,0.605V37.18
				c-0.312,0.002-0.563-0.241-0.563-0.604c0-0.361,0.251-0.603,0.563-0.603C7.915,35.975,8.172,36.216,8.172,36.577 M8.399,36.577
				c0-0.497-0.372-0.787-0.789-0.787c-0.418,0-0.79,0.29-0.79,0.787s0.372,0.787,0.79,0.787C8.027,37.364,8.399,37.074,8.399,36.577
				 M7.479,36.644h0.086L7.761,37h0.215l-0.217-0.37c0.112-0.009,0.204-0.064,0.204-0.222c0-0.192-0.129-0.255-0.347-0.255H7.298V37
				h0.181V36.644z M7.479,36.5v-0.203h0.127c0.069,0,0.162,0.007,0.162,0.094c0,0.093-0.048,0.109-0.129,0.109H7.479L7.479,36.5z"/>
			<path id="path242" inkscape:connector-curvature="0" fill="#FFFFFF" d="M7.45,9.589v16.316l1.67,1.692h9.273l1.367-1.703V9.589
				l-1.367-1.74H9.12L7.45,9.589z M7.45,0.729h12.306l6.426,7.115v19.754l-6.426,7.124H7.45l-6.426-7.124V7.849L7.45,0.729z"/>
			<polygon id="polygon244" fill="#FFFFFF" points="28.662,38.812 28.662,16.883 35.084,16.877 35.084,40.514 28.658,47.638 
				17.021,47.638 10.597,40.514 10.597,16.883 17.021,16.883 17.021,38.821 18.691,40.514 27.295,40.514 			"/>
		</g>
	</g>
</g>
</svg>
